HIERARCHY
ROOT Hips
{
	OFFSET 0.000000 83.214638 0.000000
	CHANNELS 6 Xposition Yposition Zposition Xrotation Yrotation Zrotation
	JOINT Pelvis
	{
		OFFSET 0.000000 0.000000 0.000000
		CHANNELS 3 Xrotation Yrotation Zrotation
		JOINT LeftUpLeg
		{
			OFFSET 8.479700 -4.795502 -0.379100
			CHANNELS 3 Xrotation Yrotation Zrotation
			JOINT LeftLeg
			{
				OFFSET 0.024144 -32.555107 0.112900
				CHANNELS 3 Xrotation Yrotation Zrotation
				JOINT LeftFoot
				{
					OFFSET -0.024144 -32.638630 -3.012600
					CHANNELS 3 Xrotation Yrotation Zrotation
					JOINT LeftToeBase
					{
						OFFSET 0.970200 -13.225400 11.864200
						CHANNELS 3 Xrotation Yrotation Zrotation
						End Site
						{
							OFFSET 0.000000 12.319262 0.000000
						}
					}
					JOINT LFootTongue
					{
						OFFSET 1.142400 -1.059800 6.665200
						CHANNELS 3 Xrotation Yrotation Zrotation
						End Site
						{
							OFFSET 0.000000 12.319262 0.000000
						}
					}
				}
				JOINT LeftPantLeg
				{
					OFFSET 0.918482 -16.533964 -2.284700
					CHANNELS 3 Xrotation Yrotation Zrotation
					End Site
					{
						OFFSET 0.350399 24.744368 0.000000
					}
				}
			}
		}
		JOINT RightUpLeg
		{
			OFFSET -8.479700 -4.795502 -0.379100
			CHANNELS 3 Xrotation Yrotation Zrotation
			JOINT RightLeg
			{
				OFFSET -0.023144 -32.555092 0.112900
				CHANNELS 3 Xrotation Yrotation Zrotation
				JOINT RightFoot
				{
					OFFSET 0.023144 -32.638641 -3.012700
					CHANNELS 3 Xrotation Yrotation Zrotation
					JOINT RightToeBase
					{
						OFFSET -0.970200 -13.225400 11.864200
						CHANNELS 3 Xrotation Yrotation Zrotation
						End Site
						{
							OFFSET 0.000000 12.319244 0.000000
						}
					}
					JOINT RFootTongue
					{
						OFFSET -1.142200 -1.059800 6.665200
						CHANNELS 3 Xrotation Yrotation Zrotation
						End Site
						{
							OFFSET 0.000000 12.319243 0.000000
						}
					}
				}
				JOINT RightPantLeg
				{
					OFFSET -0.919482 -16.533978 -2.284800
					CHANNELS 3 Xrotation Yrotation Zrotation
					End Site
					{
						OFFSET -0.350400 24.744419 0.000000
					}
				}
			}
		}
	}
	JOINT Spine
	{
		OFFSET 0.000000 7.722000 1.166200
		CHANNELS 3 Xrotation Yrotation Zrotation
		JOINT Spine1
		{
			OFFSET 0.000000 12.024101 0.248800
			CHANNELS 3 Xrotation Yrotation Zrotation
			JOINT Spine2
			{
				OFFSET 0.000000 11.502998 -0.491200
				CHANNELS 3 Xrotation Yrotation Zrotation
				JOINT Neck
				{
					OFFSET 0.000000 18.430702 -3.123100
					CHANNELS 3 Xrotation Yrotation Zrotation
					JOINT Head
					{
						OFFSET 0.000000 9.051102 1.034000
						CHANNELS 3 Xrotation Yrotation Zrotation
						JOINT HairB
						{
							OFFSET 0.208400 24.786102 24.822300
							CHANNELS 3 Xrotation Yrotation Zrotation
							End Site
							{
								OFFSET 0.000000 32.263779 0.000000
							}
						}
						JOINT HairA
						{
							OFFSET -7.081100 24.428299 23.196600
							CHANNELS 3 Xrotation Yrotation Zrotation
							End Site
							{
								OFFSET 0.000000 32.263779 0.000000
							}
						}
						JOINT Hat
						{
							OFFSET 16.728800 15.048294 -15.439601
							CHANNELS 3 Xrotation Yrotation Zrotation
							End Site
							{
								OFFSET 0.000000 32.263779 0.000000
							}
						}
					}
				}
				JOINT LeftShoulder
				{
					OFFSET 6.197800 13.665199 -4.064700
					CHANNELS 3 Xrotation Yrotation Zrotation
					JOINT LeftArm
					{
						OFFSET 7.778100 -0.187103 -1.709300
						CHANNELS 3 Xrotation Yrotation Zrotation
						JOINT LeftForeArm
						{
							OFFSET 22.049376 0.000000 0.000000
							CHANNELS 3 Xrotation Yrotation Zrotation
							JOINT LeftHand
							{
								OFFSET 23.009392 0.000000 0.000000
								CHANNELS 3 Xrotation Yrotation Zrotation
								JOINT LeftHandThumb1
								{
									OFFSET 3.507191 -2.063065 3.133727
									CHANNELS 3 Xrotation Yrotation Zrotation
									JOINT LeftHandThumb2
									{
										OFFSET 3.101337 -1.790558 1.790558
										CHANNELS 3 Xrotation Yrotation Zrotation
										JOINT LeftHandThumb3
										{
											OFFSET 3.058640 -1.765907 1.765906
											CHANNELS 3 Xrotation Yrotation Zrotation
											End Site
											{
												OFFSET -0.415260 3.926476 -0.049563
											}
										}
									}
								}
								JOINT LeftHandIndex1
								{
									OFFSET 11.334419 -0.901459 3.706815
									CHANNELS 3 Xrotation Yrotation Zrotation
									JOINT LeftHandIndex2
									{
										OFFSET 3.283112 0.000000 0.000000
										CHANNELS 3 Xrotation Yrotation Zrotation
										JOINT LeftHandIndex3
										{
											OFFSET 3.323853 0.000000 0.000000
											CHANNELS 3 Xrotation Yrotation Zrotation
											End Site
											{
												OFFSET -1.135597 3.097809 0.402452
											}
										}
									}
								}
								JOINT LeftHandMiddle1
								{
									OFFSET 11.335861 0.000000 0.000000
									CHANNELS 3 Xrotation Yrotation Zrotation
									JOINT LeftHandMiddle2
									{
										OFFSET 3.410492 0.000000 0.000000
										CHANNELS 3 Xrotation Yrotation Zrotation
										JOINT LeftHandMiddle3
										{
											OFFSET 3.312172 0.000000 0.000000
											CHANNELS 3 Xrotation Yrotation Zrotation
											End Site
											{
												OFFSET -1.150200 3.080154 0.400270
											}
										}
									}
								}
								JOINT LeftHandRing1
								{
									OFFSET 11.514786 -0.013176 -3.003090
									CHANNELS 3 Xrotation Yrotation Zrotation
									JOINT LeftHandRing2
									{
										OFFSET 3.053307 0.000000 0.000000
										CHANNELS 3 Xrotation Yrotation Zrotation
										JOINT LeftHandRing3
										{
											OFFSET 3.295807 0.000000 0.000000
											CHANNELS 3 Xrotation Yrotation Zrotation
											End Site
											{
												OFFSET -1.281006 3.013344 0.375733
											}
										}
									}
								}
								JOINT LeftHandPinky1
								{
									OFFSET 10.518692 -0.960396 -5.730441
									CHANNELS 3 Xrotation Yrotation Zrotation
									JOINT LeftHandPinky2
									{
										OFFSET 2.861649 0.000000 0.000000
										CHANNELS 3 Xrotation Yrotation Zrotation
										JOINT LeftHandPinky3
										{
											OFFSET 2.863380 0.000000 0.000000
											CHANNELS 3 Xrotation Yrotation Zrotation
											End Site
											{
												OFFSET -0.843597 2.711159 0.369971
											}
										}
									}
								}
							}
							JOINT LSleeve
							{
								OFFSET 6.676277 -0.344902 -1.011730
								CHANNELS 3 Xrotation Yrotation Zrotation
								End Site
								{
									OFFSET 0.000000 14.885353 0.000000
								}
							}
						}
					}
				}
				JOINT RightShoulder
				{
					OFFSET -6.197800 13.665199 -4.064700
					CHANNELS 3 Xrotation Yrotation Zrotation
					JOINT RightArm
					{
						OFFSET -7.778100 -0.187103 -1.709300
						CHANNELS 3 Xrotation Yrotation Zrotation
						JOINT RightForeArm
						{
							OFFSET -22.049376 0.000000 0.000000
							CHANNELS 3 Xrotation Yrotation Zrotation
							JOINT RightHand
							{
								OFFSET -23.009392 0.000000 0.000000
								CHANNELS 3 Xrotation Yrotation Zrotation
								JOINT RightHandThumb1
								{
									OFFSET -3.507191 -2.063065 3.133727
									CHANNELS 3 Xrotation Yrotation Zrotation
									JOINT RightHandThumb2
									{
										OFFSET -3.101337 -1.790558 1.790558
										CHANNELS 3 Xrotation Yrotation Zrotation
										JOINT RightHandThumb3
										{
											OFFSET -3.058640 -1.765907 1.765906
											CHANNELS 3 Xrotation Yrotation Zrotation
											End Site
											{
												OFFSET 0.415260 3.926476 -0.049563
											}
										}
									}
								}
								JOINT RightHandIndex1
								{
									OFFSET -11.334419 -0.901459 3.706815
									CHANNELS 3 Xrotation Yrotation Zrotation
									JOINT RightHandIndex2
									{
										OFFSET -3.283112 0.000000 0.000000
										CHANNELS 3 Xrotation Yrotation Zrotation
										JOINT RightHandIndex3
										{
											OFFSET -3.323853 0.000000 0.000000
											CHANNELS 3 Xrotation Yrotation Zrotation
											End Site
											{
												OFFSET 1.135597 3.097809 0.402452
											}
										}
									}
								}
								JOINT RightHandMiddle1
								{
									OFFSET -11.335861 0.000000 0.000000
									CHANNELS 3 Xrotation Yrotation Zrotation
									JOINT RightHandMiddle2
									{
										OFFSET -3.410492 0.000000 0.000000
										CHANNELS 3 Xrotation Yrotation Zrotation
										JOINT RightHandMiddle3
										{
											OFFSET -3.312172 0.000000 0.000000
											CHANNELS 3 Xrotation Yrotation Zrotation
											End Site
											{
												OFFSET 1.150200 3.080154 0.400270
											}
										}
									}
								}
								JOINT RightHandRing1
								{
									OFFSET -11.514786 -0.013176 -3.003090
									CHANNELS 3 Xrotation Yrotation Zrotation
									JOINT RightHandRing2
									{
										OFFSET -3.053307 0.000000 0.000000
										CHANNELS 3 Xrotation Yrotation Zrotation
										JOINT RightHandRing3
										{
											OFFSET -3.295807 0.000000 0.000000
											CHANNELS 3 Xrotation Yrotation Zrotation
											End Site
											{
												OFFSET 1.281006 3.013344 0.375733
											}
										}
									}
								}
								JOINT RightHandPinky1
								{
									OFFSET -10.518692 -0.960396 -5.730441
									CHANNELS 3 Xrotation Yrotation Zrotation
									JOINT RightHandPinky2
									{
										OFFSET -2.861649 0.000000 0.000000
										CHANNELS 3 Xrotation Yrotation Zrotation
										JOINT RightHandPinky3
										{
											OFFSET -2.863380 0.000000 0.000000
											CHANNELS 3 Xrotation Yrotation Zrotation
											End Site
											{
												OFFSET 0.843597 2.711159 0.369971
											}
										}
									}
								}
							}
							JOINT RSleeve
							{
								OFFSET -6.676277 -0.344902 -1.011730
								CHANNELS 3 Xrotation Yrotation Zrotation
								End Site
								{
									OFFSET 0.000000 14.885353 0.000000
								}
							}
						}
					}
				}
				JOINT Backpack
				{
					OFFSET 0.000000 -2.471497 36.677502
					CHANNELS 3 Xrotation Yrotation Zrotation
					End Site
					{
						OFFSET 0.000000 20.427315 0.000000
					}
				}
				JOINT Hood
				{
					OFFSET 0.000000 18.754097 -10.431000
					CHANNELS 3 Xrotation Yrotation Zrotation
					JOINT Hood1
					{
						OFFSET 0.000000 -5.011002 -7.685901
						CHANNELS 3 Xrotation Yrotation Zrotation
						End Site
						{
							OFFSET 0.000000 9.175140 0.000000
						}
					}
				}
				JOINT LHoodieString
				{
					OFFSET 5.250500 16.397697 3.089900
					CHANNELS 3 Xrotation Yrotation Zrotation
					JOINT LHoodieString1
					{
						OFFSET 0.257700 -6.364304 3.694600
						CHANNELS 3 Xrotation Yrotation Zrotation
						JOINT LHoodieString2
						{
							OFFSET 0.000000 -9.643799 2.679100
							CHANNELS 3 Xrotation Yrotation Zrotation
							End Site
							{
								OFFSET 0.000000 10.009018 0.000000
							}
						}
					}
				}
				JOINT RHoodieString
				{
					OFFSET -5.250500 16.397697 3.089900
					CHANNELS 3 Xrotation Yrotation Zrotation
					JOINT RHoodieString1
					{
						OFFSET -0.257700 -6.364304 3.694600
						CHANNELS 3 Xrotation Yrotation Zrotation
						JOINT RHoodieString2
						{
							OFFSET 0.000000 -9.643799 2.679100
							CHANNELS 3 Xrotation Yrotation Zrotation
							End Site
							{
								OFFSET 0.000000 10.009018 0.000000
							}
						}
					}
				}
			}
			JOINT LBackpack_Strap
			{
				OFFSET 15.223200 -7.719803 -6.610900
				CHANNELS 3 Xrotation Yrotation Zrotation
				End Site
				{
					OFFSET 0.000000 16.040596 0.000000
				}
			}
			JOINT RBackpack_Strap
			{
				OFFSET -15.223000 -7.719803 -6.610900
				CHANNELS 3 Xrotation Yrotation Zrotation
				End Site
				{
					OFFSET 0.000000 16.040596 0.000000
				}
			}
		}
	}
	JOINT BoyFacialAnim_Joint
	{
		OFFSET 1.000000 -82.208099 -1.550900
		CHANNELS 3 Xrotation Yrotation Zrotation
		End Site
		{
			OFFSET 0.000000 30.012791 0.000000
		}
	}
}
MOTION
Frames: 4
Frame Time: 0.033333
-3.214125 77.111282 -142.588760 -25.273474 -35.431753 -12.245271 0.000001 0.000001 -0.000000 -13.637730 22.253999 15.416808 36.737921 -0.947976 -1.300285 -4.866783 -4.172501 -2.150094 -0.000000 0.000000 0.000000 -0.000000 0.000000 -0.000000 0.000000 -0.000001 0.000000 9.034359 6.243774 -13.069903 48.169458 2.452110 1.813544 -15.249302 -11.485540 9.687871 0.000002 -0.000000 -0.000000 0.000002 -0.000000 -0.000000 -0.000000 0.000001 0.000000 7.905153 0.123320 -0.553780 15.810025 0.016029 -0.873090 15.810022 0.016036 -0.873086 -2.428260 6.787645 -2.406099 -10.017132 15.304726 11.072111 0.000000 -0.000000 -0.000000 0.000000 -0.000000 -0.000000 0.000000 -0.000000 -0.000000 -37.621775 -5.365554 2.849679 -47.184788 -14.927122 -66.432414 1.909233 -39.594627 -0.304116 -112.184204 3.855720 18.389396 3.504653 3.843616 -5.095900 1.252895 4.302589 1.889369 -0.000001 -0.000000 -0.000002 7.554904 5.560411 -33.410383 -14.917811 -6.767389 -80.641906 0.000001 0.000000 -0.000004 -0.349197 -1.566787 -62.979241 -6.177645 -6.585481 -60.286180 0.000003 0.000001 0.000000 -5.286458 4.624241 -73.484714 0.757928 -3.521233 -58.282865 -0.000001 -0.000001 -0.000004 -16.248803 1.424928 -86.150576 2.608792 -7.577993 -55.784730 0.000001 -0.000001 0.000003 -0.000000 0.000001 0.000003 -31.928406 21.079057 -0.482254 -12.457640 45.910889 57.889180 -1.323603 107.535147 -6.699995 -46.791748 -25.067645 -33.404659 15.407454 -4.518727 17.011003 11.550390 4.015412 -20.411404 0.000001 -0.000001 -0.000001 1.720060 -1.037863 0.781113 -1.744962 0.179169 18.325527 -0.000001 0.000001 0.000002 4.123510 5.181405 44.886142 -9.412598 -0.511585 106.779441 0.000002 0.000000 -0.000004 -8.446817 -5.400115 50.928390 -4.128234 8.742265 92.756995 -0.000001 -0.000001 0.000002 -11.533032 0.430787 66.030587 -2.702434 13.625506 75.682758 -0.000003 0.000000 0.000005 0.000001 0.000001 -0.000005 0.000001 0.000001 -0.000000 0.000001 0.000001 -0.000000 0.000001 0.000001 -0.000000 0.000001 0.000001 -0.000000 0.000001 0.000001 0.000001 0.000001 0.000001 0.000001 0.000001 0.000001 -0.000000 0.000001 0.000001 0.000001 0.000001 0.000001 0.000001 0.000000 0.000001 0.000000 0.000000 0.000001 0.000000 0.000001 0.000001 -0.000000 
-3.779195 77.177834 -144.861771 -25.114553 -35.225751 -12.227746 0.000002 0.000002 0.000000 -14.452856 21.010750 16.422517 34.782701 -1.355014 -1.243676 -3.711491 -3.471595 -3.363605 0.000000 0.000001 -0.000000 0.000000 0.000001 -0.000000 -0.000000 0.000002 -0.000000 9.276232 5.274938 -11.440349 46.485472 1.903776 1.732809 -19.761202 -11.620072 8.299877 0.000000 -0.000000 0.000000 0.000000 -0.000000 0.000000 -0.000000 -0.000000 -0.000002 7.916707 0.088310 -0.574804 15.833068 -0.041957 -0.969243 15.833072 -0.041958 -0.969239 -2.445873 6.814989 -2.441399 -10.195335 15.413992 10.998398 -0.000001 0.000000 -0.000000 -0.000001 0.000000 -0.000000 -0.000001 0.000000 -0.000000 -37.616638 -5.467352 2.862434 -47.623091 -15.206284 -66.300913 1.977029 -39.471154 -0.249085 -112.067019 3.972645 18.676097 3.505483 3.846838 -5.096225 1.252894 4.302592 1.889368 -0.000000 0.000003 -0.000002 7.554902 5.560410 -33.410383 -14.917814 -6.767395 -80.641906 -0.000003 -0.000001 -0.000005 -0.349197 -1.566792 -62.979241 -6.177646 -6.585481 -60.286180 0.000001 -0.000000 0.000004 -5.286453 4.624246 -73.484714 0.757925 -3.521234 -58.282865 0.000003 0.000002 0.000002 -16.248805 1.424925 -86.150576 2.608789 -7.577997 -55.784730 -0.000001 -0.000001 0.000003 -0.000001 0.000000 0.000001 -31.879023 20.971213 -0.606885 -12.692218 46.051396 57.592531 -1.287268 107.516200 -6.736517 -47.379663 -24.532824 -33.781361 15.407454 -4.518725 17.010998 11.550389 4.015411 -20.411399 0.000000 -0.000001 0.000001 1.720052 -1.037846 0.781120 -1.744943 0.179166 18.325517 -0.000001 -0.000001 -0.000000 4.123523 5.181418 44.886152 -9.412611 -0.511570 106.779448 0.000001 0.000001 -0.000002 -8.446816 -5.400118 50.928383 -4.128221 8.742266 92.757022 0.000001 -0.000002 0.000005 -11.533041 0.430775 66.030587 -2.702429 13.625495 75.682751 0.000002 -0.000003 -0.000002 -0.000000 -0.000001 -0.000003 -0.000000 0.000001 -0.000000 -0.000000 0.000001 -0.000000 -0.000000 0.000001 -0.000000 -0.000000 0.000001 -0.000000 -0.000000 0.000001 -0.000000 -0.000000 -0.000001 -0.000000 -0.000000 0.000001 -0.000000 -0.000000 0.000001 -0.000000 -0.000000 -0.000001 -0.000000 0.000000 0.000002 -0.000000 0.000000 0.000002 -0.000000 0.000002 0.000002 0.000000 
-4.339619 77.314667 -147.190018 -24.880287 -35.032648 -12.244735 -0.000001 -0.000002 0.000001 -14.994410 19.837555 17.414863 32.395294 -1.719806 -1.165022 -3.256251 -2.617116 -4.684704 0.000000 -0.000001 -0.000000 0.000000 -0.000001 0.000000 0.000000 -0.000001 -0.000000 9.273281 4.666575 -9.407240 44.804388 1.220051 1.641374 -23.655921 -12.063477 6.514364 -0.000000 -0.000000 0.000000 -0.000000 -0.000000 0.000000 -0.000000 0.000001 0.000000 7.936229 0.048327 -0.603296 15.871874 -0.118560 -1.027373 15.871876 -0.118568 -1.027372 -2.535453 6.872324 -2.503225 -10.259654 15.641673 10.950599 0.000000 0.000003 -0.000002 0.000000 0.000003 -0.000002 0.000000 0.000003 -0.000002 -37.618688 -5.461343 2.891299 -48.115681 -15.628825 -66.195134 2.062482 -39.121893 -0.201797 -112.058447 4.092850 18.806212 3.506098 3.849266 -5.096178 1.252894 4.302591 1.889369 0.000001 -0.000001 0.000001 7.554898 5.560418 -33.410389 -14.917808 -6.767392 -80.641906 -0.000002 -0.000001 -0.000002 -0.349198 -1.566785 -62.979235 -6.177646 -6.585478 -60.286187 -0.000000 0.000000 0.000000 -5.286455 4.624248 -73.484708 0.757928 -3.521236 -58.282865 -0.000003 -0.000003 0.000001 -16.248801 1.424931 -86.150576 2.608788 -7.577997 -55.784730 -0.000001 0.000004 -0.000003 -0.000000 0.000000 -0.000001 -31.849285 21.024989 -0.665345 -13.010406 45.985034 57.552779 -1.258253 107.472125 -6.766373 -47.696878 -24.175699 -33.963136 15.407457 -4.518727 17.011001 11.550387 4.015413 -20.411402 0.000001 -0.000002 0.000001 1.720039 -1.037844 0.781120 -1.744944 0.179156 18.325524 -0.000001 0.000000 0.000004 4.123519 5.181415 44.886135 -9.412615 -0.511559 106.779421 0.000001 0.000001 0.000003 -8.446825 -5.400115 50.928394 -4.128220 8.742277 92.757002 0.000002 -0.000001 0.000002 -11.533045 0.430801 66.030594 -2.702451 13.625476 75.682731 -0.000001 -0.000001 -0.000002 0.000001 -0.000001 -0.000004 -0.000001 -0.000003 0.000001 -0.000001 -0.000003 0.000001 -0.000001 -0.000003 0.000001 -0.000001 -0.000003 0.000001 -0.000001 -0.000003 0.000001 -0.000000 0.000002 -0.000000 -0.000001 -0.000003 0.000001 -0.000001 -0.000003 0.000001 -0.000000 0.000002 -0.000000 0.000000 0.000001 -0.000000 0.000000 0.000001 -0.000000 -0.000001 -0.000002 0.000001 
-4.889613 77.514252 -149.519867 -24.567571 -34.804376 -12.221596 0.000000 0.000001 -0.000000 -15.234891 18.973695 18.328346 30.181506 -1.992743 -1.073286 -4.222778 -1.573190 -5.900403 -0.000001 0.000001 -0.000000 -0.000001 0.000001 -0.000000 0.000000 0.000001 -0.000001 9.007582 4.308886 -7.275222 43.133266 0.514180 1.548680 -26.394981 -12.393588 4.834693 -0.000000 0.000000 -0.000000 -0.000000 0.000000 -0.000000 -0.000000 -0.000000 0.000000 7.955494 0.007316 -0.643749 15.910168 -0.202101 -1.071037 15.910168 -0.202108 -1.071040 -2.682442 6.920915 -2.489279 -10.113362 15.927496 10.814399 -0.000000 -0.000000 -0.000000 -0.000000 -0.000000 -0.000000 -0.000000 -0.000000 -0.000000 -37.621481 -5.439469 2.918959 -48.671723 -16.072166 -66.163325 2.155698 -38.635429 -0.159756 -112.044937 4.220808 18.839321 3.507436 3.854388 -5.095841 1.252895 4.302589 1.889368 -0.000000 -0.000003 0.000000 7.554900 5.560412 -33.410383 -14.917813 -6.767388 -80.641913 -0.000000 0.000000 -0.000002 -0.349196 -1.566790 -62.979241 -6.177648 -6.585479 -60.286180 0.000000 0.000002 0.000001 -5.286454 4.624239 -73.484708 0.757925 -3.521235 -58.282865 -0.000003 -0.000002 0.000003 -16.248803 1.424929 -86.150576 2.608789 -7.577997 -55.784730 0.000003 -0.000002 -0.000004 -0.000000 0.000003 -0.000001 -31.849667 21.072226 -0.657685 -13.365738 45.810557 57.688980 -1.237825 107.420933 -6.789051 -47.817693 -23.976148 -33.985659 15.407455 -4.518726 17.011004 11.550388 4.015410 -20.411400 0.000003 -0.000001 0.000000 1.720040 -1.037849 0.781128 -1.744950 0.179173 18.325536 -0.000000 0.000002 0.000004 4.123488 5.181419 44.886152 -9.412579 -0.511585 106.779448 -0.000000 0.000001 0.000002 -8.446831 -5.400103 50.928397 -4.128233 8.742278 92.756995 -0.000002 -0.000000 0.000004 -11.533065 0.430793 66.030601 -2.702443 13.625491 75.682744 -0.000001 -0.000002 -0.000000 0.000001 -0.000003 -0.000000 -0.000000 0.000001 -0.000000 -0.000000 0.000001 -0.000000 -0.000000 0.000001 -0.000000 -0.000000 0.000001 -0.000000 -0.000000 0.000001 -0.000000 -0.000000 -0.000001 0.000001 -0.000000 0.000001 -0.000000 -0.000000 0.000001 -0.000000 -0.000000 -0.000001 0.000001 0.000000 -0.000003 0.000000 0.000000 -0.000003 0.000000 0.000000 0.000001 -0.000000 
